<?xml version="1.0" encoding="UTF-8"?>
<svg width="92px" height="69px" viewBox="0 0 92 69" version="1.1" xmlns="http://www.w3.org/2000/svg" xmlns:xlink="http://www.w3.org/1999/xlink">
    <!-- Generator: Sketch 47.1 (45422) - http://www.bohemiancoding.com/sketch -->
    <title>Icon/camera-92px</title>
    <desc>Created with Sketch.</desc>
    <defs></defs>
    <g id="Symbols" stroke="none" stroke-width="1" fill="none" fill-rule="evenodd">
        <g id="Panel" transform="translate(-104.000000, -39.000000)">
            <g transform="translate(9.000000, 27.000000)" id="Icon/camera-92px">
                <g transform="translate(95.000000, 0.000000)">
                    <g>
                        <rect id="bg" fill="#EDEDED" opacity="0" x="0" y="0" width="92" height="92"></rect>
                        <g id="camera" transform="translate(0.000000, 12.000000)" fill-rule="nonzero" fill="#FFFFFF">
                            <g id="Group">
                                <path d="M83.9100654,10.7930328 L65.3508036,10.7930328 L63.4472896,3.63852459 C62.9714111,1.57166667 61.0678971,0.140765027 58.8471307,0.140765027 L32.9910652,0.140765027 C30.7702989,0.140765027 28.8667848,1.57166667 28.3909063,3.63852459 L26.4873923,10.7930328 L8.08675671,10.7930328 C3.64522399,10.7930328 0.155448276,14.2907923 0.155448276,18.7424863 L0.155448276,61.0335792 C0.155448276,65.4852732 3.64522399,68.9830328 8.08675671,68.9830328 L84.0686916,68.9830328 C88.5102243,68.9830328 92,65.4852732 92,61.0335792 L92,18.7424863 C91.8413738,14.4497814 88.3515981,10.7930328 83.9100654,10.7930328 Z M88.6688505,61.1925683 C88.6688505,63.8953825 86.6067103,65.9622404 83.9100654,65.9622404 L8.08675671,65.9622404 C5.39011185,65.9622404 3.32797165,63.8953825 3.32797165,61.1925683 L3.32797165,18.7424863 C3.32797165,16.0396721 5.39011185,13.9728142 8.08675671,13.9728142 L27.9150278,13.9728142 C28.7081587,13.9728142 29.3426633,13.495847 29.5012895,12.8598907 L31.7220559,4.59245902 C31.880682,3.95650273 32.5151867,3.47953552 33.3083176,3.47953552 L59.1643831,3.47953552 C59.9575139,3.47953552 60.5920186,3.95650273 60.7506448,4.59245902 L62.9714111,12.8598907 C63.1300373,13.495847 63.764542,13.9728142 64.5576728,13.9728142 L84.3859439,13.9728142 C87.0825888,13.9728142 89.144729,16.0396721 89.144729,18.7424863 L89.144729,61.1925683 L88.6688505,61.1925683 Z" id="Shape"></path>
                                <path d="M45.5082759,18.4 C34.316,18.4 25.3,27.6213661 25.3,39.0685792 C25.3,50.5157923 34.316,59.7371585 45.5082759,59.7371585 C56.7005517,59.7371585 65.7165517,50.5157923 65.7165517,39.0685792 C65.7165517,27.7803552 56.7005517,18.4 45.5082759,18.4 Z M45.5082759,56.557377 C36.025931,56.557377 28.4089655,48.7669126 28.4089655,39.0685792 C28.4089655,29.3702459 36.025931,21.5797814 45.5082759,21.5797814 C54.9906207,21.5797814 62.6075862,29.3702459 62.6075862,39.0685792 C62.6075862,48.7669126 54.9906207,56.557377 45.5082759,56.557377 Z" id="Shape"></path>
                            </g>
                        </g>
                    </g>
                </g>
            </g>
        </g>
    </g>
</svg>